<svg width="2000" height="2000" viewBox="0 0 2000 2000" fill="none" xmlns="http://www.w3.org/2000/svg">
<rect width="2000" height="2000" fill="#67E8F9"/>
<rect width="2000" height="2000" fill="#67E8F9"/>
<path d="M980.464 1121.12C980.464 1179.22 1000.97 1242.43 1002.68 1252.68V1256.1H834.382V1252.68C836.945 1242.43 857.447 1179.22 857.447 1121.12V981.023C857.447 923.786 819.859 900.72 778.853 900.72C756.642 900.72 735.285 909.263 713.928 923.786C715.636 935.746 717.345 949.414 717.345 963.937V1121.12C717.345 1179.22 736.993 1242.43 739.556 1252.68V1256.1H571.263V1252.68C572.971 1242.43 593.474 1179.22 593.474 1121.12V981.023C593.474 923.786 555.031 900.72 514.88 900.72C492.669 900.72 470.457 908.409 449.955 922.931V1121.12C449.955 1179.22 470.457 1242.43 472.166 1252.68V1256.1H304.726V1252.68C306.435 1242.43 326.938 1179.22 326.938 1121.12V960.52C326.938 902.429 306.435 839.212 304.726 828.96V825.543H449.955V898.157C481.563 853.734 524.277 820.417 584.931 820.417C641.314 820.417 690.008 847.754 708.802 905.846C740.411 856.297 784.833 820.417 848.904 820.417C921.519 820.417 980.464 866.549 980.464 963.937V1121.12ZM975.478 1409.87L973.77 1407.31C1054.07 1350.93 1069.45 1270.62 1069.45 1178.36V960.52C1069.45 902.429 1048.95 839.212 1047.24 828.96V825.543H1192.47V1178.36C1192.47 1343.24 1082.26 1405.6 975.478 1409.87ZM1534.93 820.417C1624.63 820.417 1702.37 893.031 1702.37 1035.7C1702.37 1192.03 1610.11 1263.79 1524.68 1263.79C1487.09 1263.79 1442.67 1250.12 1409.35 1210.82V1291.98C1409.35 1350.07 1429.86 1413.29 1431.57 1423.54V1426.96H1262.42V1423.54C1264.13 1413.29 1284.63 1350.07 1284.63 1291.98V964.791C1284.63 906.7 1263.27 846.9 1259.85 835.795V833.232L1282.07 829.815L1409.35 815.292V885.343C1438.4 842.629 1484.53 820.417 1534.93 820.417ZM1471.72 1201.43C1540.91 1201.43 1567.4 1123.69 1567.4 1038.26C1567.4 960.52 1542.62 891.323 1477.7 891.323C1453.78 891.323 1430.71 902.429 1409.35 921.223V1179.22C1429 1192.88 1449.51 1201.43 1471.72 1201.43Z" fill="black"/>
</svg>
